<svg width="19" height="16" viewBox="0 0 19 16" fill="none" xmlns="http://www.w3.org/2000/svg">
<path d="M8.03827 10.3168C7.47672 10.3168 7.14779 10.0007 7.14779 9.4334V8.77696C4.78926 8.61486 2.43875 8.12862 0 7.19659V5.85942C3.00031 7.1885 6.00864 7.65856 9.28171 7.65856C12.5628 7.65856 15.5711 7.1885 18.5714 5.85942V7.19659C16.1327 8.12862 13.7822 8.61486 11.4236 8.77696V9.4334C11.4236 10.0007 11.0947 10.3168 10.5332 10.3168H8.03827ZM2.47886 15.7061H16.0926C17.7532 15.7061 18.5714 14.8957 18.5714 13.2343V5.34885C18.5714 3.68746 17.7532 2.87703 16.0926 2.87703H2.47886C0.826287 2.87703 0 3.68746 0 5.34885V13.2343C0 14.8957 0.826287 15.7061 2.47886 15.7061ZM5.21444 3.58211H6.45788V2.14764C6.45788 1.53171 6.81889 1.18323 7.44462 1.18323H11.1268C11.7526 1.18323 12.1055 1.53171 12.1055 2.14764V3.5659H13.349V2.23679C13.349 0.713179 12.5547 0 11.1028 0H7.46064C6.08886 0 5.21444 0.713179 5.21444 2.23679V3.58211Z" fill="#B3B3B3"/>
</svg>
