<svg width="112" height="19" viewBox="0 0 112 19" fill="none" xmlns="http://www.w3.org/2000/svg">
<path d="M15.1867 0L9.04149 10.8509V17.9991H6.14519V10.8509L0 0H3.29926L7.60593 7.97102L11.8874 0H15.1867Z" fill="white"/>
<path d="M20.3414 18.3333C18.4945 18.3333 16.9246 17.6819 15.6317 16.3791C14.3389 15.0764 13.6925 13.4736 13.6925 11.5708C13.6925 9.66807 14.3389 8.0653 15.6317 6.76251C16.9246 5.45972 18.4945 4.80832 20.3414 4.80832C22.2051 4.80832 23.775 5.45972 25.051 6.76251C26.3439 8.0653 26.9903 9.66807 26.9903 11.5708C26.9903 13.4736 26.3439 15.0764 25.051 16.3791C23.775 17.6819 22.2051 18.3333 20.3414 18.3333ZM17.5458 14.4764C18.3014 15.2478 19.2332 15.6335 20.3414 15.6335C21.4495 15.6335 22.3814 15.2478 23.1369 14.4764C23.8925 13.705 24.2703 12.7365 24.2703 11.5708C24.2703 10.4052 23.8925 9.43665 23.1369 8.66527C22.3814 7.89388 21.4495 7.50818 20.3414 7.50818C19.2332 7.50818 18.3014 7.89388 17.5458 8.66527C16.7903 9.43665 16.4125 10.4052 16.4125 11.5708C16.4125 12.7365 16.7903 13.705 17.5458 14.4764Z" fill="white"/>
<path d="M37.9372 5.14259H40.6572V17.9991H37.9372V16.3534C37.1145 17.6734 35.8132 18.3333 34.0335 18.3333C32.5895 18.3333 31.4226 17.8619 30.5327 16.9191C29.6429 15.9763 29.1979 14.6821 29.1979 13.0365V5.14259H31.9179V12.7536C31.9179 13.7136 32.1698 14.4507 32.6735 14.9649C33.1772 15.4792 33.8656 15.7363 34.7387 15.7363C35.6957 15.7363 36.468 15.4363 37.0557 14.8364C37.6434 14.2193 37.9372 13.285 37.9372 12.0337V5.14259Z" fill="white"/>
<path d="M46.5578 7.30248C47.2462 5.70828 48.539 4.91117 50.4363 4.91117V7.91959C49.3953 7.85102 48.4887 8.10815 47.7163 8.69098C46.944 9.25666 46.5578 10.1995 46.5578 11.5194V17.9991H43.8378V5.14259H46.5578V7.30248Z" fill="white"/>
<path d="M62.9986 8.66527C63.771 9.07667 64.3754 9.64236 64.812 10.3623C65.2485 11.0823 65.4668 11.9137 65.4668 12.8565C65.4668 14.3307 64.9547 15.5563 63.9305 16.5334C62.9063 17.5105 61.6554 17.9991 60.1779 17.9991H52.6223V0H59.6238C61.0678 0 62.285 0.479975 63.2757 1.43993C64.2831 2.38273 64.7868 3.56553 64.7868 4.98831C64.7868 6.54823 64.1907 7.77388 62.9986 8.66527ZM59.6238 2.777H55.5186V7.50818H59.6238C60.2618 7.50818 60.7991 7.28534 61.2357 6.83965C61.6722 6.37681 61.8905 5.81113 61.8905 5.14259C61.8905 4.47405 61.6722 3.91694 61.2357 3.47125C60.7991 3.00842 60.2618 2.777 59.6238 2.777ZM60.1779 15.2221C60.8495 15.2221 61.412 14.9821 61.8653 14.5021C62.3354 14.005 62.5705 13.405 62.5705 12.7022C62.5705 11.9994 62.3354 11.408 61.8653 10.928C61.412 10.4309 60.8495 10.1823 60.1779 10.1823H55.5186V15.2221H60.1779Z" fill="white"/>
<path d="M77.9142 5.14259H80.6342V17.9991H77.9142V16.1477C76.89 17.6048 75.4208 18.3333 73.5068 18.3333C71.7774 18.3333 70.2998 17.6819 69.0742 16.3791C67.8485 15.0592 67.2356 13.4564 67.2356 11.5708C67.2356 9.66807 67.8485 8.0653 69.0742 6.76251C70.2998 5.45972 71.7774 4.80832 73.5068 4.80832C75.4208 4.80832 76.89 5.52829 77.9142 6.96821V5.14259ZM71.089 14.5278C71.8445 15.2992 72.7932 15.6849 73.9349 15.6849C75.0766 15.6849 76.0253 15.2992 76.7808 14.5278C77.5364 13.7393 77.9142 12.7536 77.9142 11.5708C77.9142 10.388 77.5364 9.41094 76.7808 8.63955C76.0253 7.85102 75.0766 7.45676 73.9349 7.45676C72.7932 7.45676 71.8445 7.85102 71.089 8.63955C70.3334 9.41094 69.9556 10.388 69.9556 11.5708C69.9556 12.7536 70.3334 13.7393 71.089 14.5278Z" fill="white"/>
<path d="M90.4283 4.80832C91.8722 4.80832 93.0391 5.27973 93.929 6.22253C94.8189 7.16534 95.2638 8.45956 95.2638 10.1052V17.9991H92.5438V10.388C92.5438 9.42808 92.292 8.69098 91.7883 8.17672C91.2846 7.66246 90.5962 7.40533 89.7231 7.40533C88.766 7.40533 87.9937 7.71389 87.406 8.331C86.8184 8.93097 86.5246 9.85663 86.5246 11.108V17.9991H83.8045V5.14259H86.5246V6.78822C87.3473 5.46829 88.6485 4.80832 90.4283 4.80832Z" fill="white"/>
<path d="M111.667 17.9991H108.216L101.265 9.43665V17.9991H98.3689V0H101.265V8.07387L107.964 0H111.415L104.287 8.76812L111.667 17.9991Z" fill="white"/>
</svg>
